<svg id="Слой_1" data-name="Слой 1" xmlns="http://www.w3.org/2000/svg" viewBox="0 0 1920 1080"><defs><style>.cls-1{fill:#fff;}</style></defs><title>2019-04-06_20-32-40</title><path class="cls-1" d="M805.3,476.55V389.79h31.13V535.08H806l-59.11-86.75v86.75H715.77V389.79h31.14Z"/><path class="cls-1" d="M894.64,389.79l14.12,145.29H877.62l-3.11-34.24H840.26l-3.11,34.24H806l14.11-145.29ZM871.81,469.7l-4.57-48.77H847.53L843,469.7Z"/><path class="cls-1" d="M988.28,389.79v96.52H968.77l26.56,48.77H960.05l-23.46-47.73H921.86v47.73H890.72V389.79Zm-66.42,66.42h35.28V420.93H921.86Z"/><path class="cls-1" d="M1093.91,389.79V535.08H987V504h14.53v-83H987V389.79ZM1032.68,504h30.1v-83h-30.1Z"/><path class="cls-1" d="M747,534.62l29.68,53.14,29.69-53.14h31.13V679.91H806.33V585.68L776.64,638,747,585.68v94.23H715.83V534.62Z"/><path class="cls-1" d="M935,534.62V679.91H837.44V534.62ZM868.58,648.78h35.28v-83H868.58Z"/><path class="cls-1" d="M1032.54,534.62V679.91H935V534.62ZM966.12,648.78h35.29v-83H966.12Z"/><path class="cls-1" d="M1130.08,534.62v96.52h-18.31l25.37,48.77h-35.29l-23.45-47.74h-14.74v47.74h-31.13V534.62ZM1063.66,601H1099V565.76h-35.29Z"/><path class="cls-1" d="M1195.66,534.62V679.91h-27.4V645.67h-27l-3.11,34.24H1107l14.12-145.29Zm-28.22,79.91.82-48.77h-19.72L1144,614.53Z"/><path class="cls-1" d="M1195.15,389.79V424l-54,25.95,54,25.94v34.25l-85.31-44.63h-45.57V434.42h45.57Z"/></svg>