<svg id="Слой_1" data-name="Слой 1" xmlns="http://www.w3.org/2000/svg" viewBox="0 0 1768.99 1080"><defs><style>.cls-1{fill:#fff;}</style></defs><title>Умоорительно</title><path class="cls-1" d="M329.89,325V5.15H444.68v535.7H332.54L114.6,221V540.85H-.21V5.15H114.6Z"/><path class="cls-1" d="M659.31,5.15l52,535.7H596.56L585.08,414.58H458.81L447.33,540.85H332.54l52-535.7ZM575.12,299.79,558.29,119.94H485.6L468.75,299.79Z"/><path class="cls-1" d="M1004.56,5.15V361H932.62l98,179.84H900.48L814,364.83H759.66v176H644.86V5.15ZM759.66,250H889.75V119.94H759.66Z"/><path class="cls-1" d="M1394.05,5.15v535.7H999.93V426.06h53.56V119.94H999.93V5.15ZM1168.3,426.06h111V119.94h-111Z"/><path class="cls-1" d="M114.8,539.15,224.24,735.06,333.68,539.15H448.47v535.7H333.68V727.41L224.24,920.27,114.8,727.41v347.44H0V539.15Z"/><path class="cls-1" d="M808.11,539.15v535.7H448.42V539.15ZM563.22,960.06H693.31V653.94H563.22Z"/><path class="cls-1" d="M1167.77,539.15v535.7H808.07V539.15ZM922.87,960.06H1053V653.94H922.87Z"/><path class="cls-1" d="M1527.41,539.15V895H1459.9l93.53,179.83h-130.1l-86.48-176h-54.33v176h-114.8V539.15ZM1282.52,784h130.09V653.94H1282.52Z"/><path class="cls-1" d="M1769.2,539.15v535.7h-101V948.58H1568.7l-11.48,126.27H1442.43l52-535.7Zm-104,294.64,3-179.85h-72.69l-16.85,179.85Z"/><path class="cls-1" d="M1767.32,5.15V131.42l-199,95.66,199,95.67V449L1452.8,284.48h-168V169.69h168Z"/></svg>
