<svg id="Слой_1" data-name="Слой 1" xmlns="http://www.w3.org/2000/svg" viewBox="0 0 1920 1080"><defs><style>.cls-1{fill:#fff;}</style></defs><title>Умоорительно</title><path class="cls-1" d="M405.39,319.89V0H520.18V535.7H408L190.1,215.81V535.7H75.3V0H190.1Z"/><path class="cls-1" d="M734.81,0l52,535.7H672.06L660.58,409.43H534.31L522.83,535.7H408L460.08,0ZM650.63,294.64,633.79,114.79H561.1L544.25,294.64Z"/><path class="cls-1" d="M1080.06,0V355.87h-71.94l98,179.83H976l-86.48-176H835.17v176H720.36V0ZM835.17,244.89H965.26V114.79H835.17Z"/><path class="cls-1" d="M1469.55,0V535.7H1075.43V420.91H1129V114.79h-53.57V0ZM1243.8,420.91h111V114.79h-111Z"/><path class="cls-1" d="M190.31,534,299.74,729.92,409.18,534H524v535.71H409.18V722.27L299.74,915.12,190.31,722.27v347.44H75.5V534Z"/><path class="cls-1" d="M930.62,534l4,535.71H476.92V534ZM635.72,954.91H765.81V648.79H635.72Z"/><path class="cls-1" d="M1297.27,534v535.71H877.57V534ZM992.38,954.91h130.09V648.79H992.38Z"/><path class="cls-1" d="M1593.91,534V889.87H1546l73.93,179.84h-130.1l-86.47-176H1349v176h-114.8V534ZM1349,778.9h130.09V648.79H1349Z"/><path class="cls-1" d="M1844.7,534v535.71h-101V943.43H1644.2l-11.48,126.28H1517.93L1570,534Zm-104,294.64,3-179.85H1671l-16.84,179.85Z"/><path class="cls-1" d="M1842.83,0V126.27l-199,95.67,199,95.66V443.87L1528.3,279.33h-168V164.54h168Z"/></svg>