<svg id="Слой_1" data-name="Слой 1" xmlns="http://www.w3.org/2000/svg" viewBox="0 0 1920 1080"><defs><style>.cls-1{fill:none;stroke:#dfdfdf;stroke-miterlimit:10;stroke-width:1.15px;}</style></defs><title>паттерн</title><g id="Фон"><g id="клетк"><g id="клетки"><rect class="cls-1" x="965.1" y="1062.27" width="65.29" height="65.29"/><rect class="cls-1" x="965.1" y="996.98" width="65.29" height="65.29"/><rect class="cls-1" x="965.1" y="931.69" width="65.29" height="65.29"/><rect class="cls-1" x="965.1" y="866.4" width="65.29" height="65.29"/><rect class="cls-1" x="965.1" y="801.11" width="65.29" height="65.29"/><rect class="cls-1" x="965.1" y="735.82" width="65.29" height="65.29"/><rect class="cls-1" x="965.1" y="670.53" width="65.29" height="65.29"/><rect class="cls-1" x="965.1" y="605.24" width="65.29" height="65.29"/><rect class="cls-1" x="965.1" y="539.94" width="65.29" height="65.29"/><rect class="cls-1" x="1030.39" y="1062.27" width="65.29" height="65.29"/><rect class="cls-1" x="1030.39" y="996.98" width="65.29" height="65.29"/><rect class="cls-1" x="1030.39" y="931.69" width="65.29" height="65.29"/><rect class="cls-1" x="1030.39" y="866.4" width="65.29" height="65.29"/><rect class="cls-1" x="1030.39" y="801.11" width="65.29" height="65.29"/><rect class="cls-1" x="1030.39" y="735.82" width="65.29" height="65.29"/><rect class="cls-1" x="1030.39" y="670.53" width="65.29" height="65.29"/><rect class="cls-1" x="1030.39" y="605.24" width="65.29" height="65.29"/><rect class="cls-1" x="1030.39" y="539.94" width="65.29" height="65.29"/><rect class="cls-1" x="1095.68" y="1062.27" width="65.29" height="65.29"/><rect class="cls-1" x="1095.68" y="996.98" width="65.29" height="65.29"/><rect class="cls-1" x="1095.68" y="931.69" width="65.29" height="65.29"/><rect class="cls-1" x="1095.68" y="866.4" width="65.29" height="65.29"/><rect class="cls-1" x="1095.68" y="801.11" width="65.29" height="65.29"/><rect class="cls-1" x="1095.68" y="735.82" width="65.29" height="65.29"/><rect class="cls-1" x="1095.68" y="670.53" width="65.29" height="65.29"/><rect class="cls-1" x="1095.68" y="605.24" width="65.29" height="65.29"/><rect class="cls-1" x="1095.68" y="539.94" width="65.29" height="65.29"/><rect class="cls-1" x="1160.97" y="1062.27" width="65.29" height="65.29"/><rect class="cls-1" x="1160.97" y="996.98" width="65.29" height="65.29"/><rect class="cls-1" x="1160.97" y="931.69" width="65.29" height="65.29"/><rect class="cls-1" x="1160.97" y="866.4" width="65.29" height="65.29"/><rect class="cls-1" x="1160.97" y="801.11" width="65.29" height="65.29"/><rect class="cls-1" x="1160.97" y="735.82" width="65.29" height="65.29"/><rect class="cls-1" x="1160.97" y="670.53" width="65.29" height="65.29"/><rect class="cls-1" x="1160.97" y="605.24" width="65.29" height="65.29"/><rect class="cls-1" x="1160.97" y="539.94" width="65.29" height="65.29"/><rect class="cls-1" x="1226.26" y="1062.27" width="65.29" height="65.29"/><rect class="cls-1" x="1226.26" y="996.98" width="65.29" height="65.29"/><rect class="cls-1" x="1226.26" y="931.69" width="65.29" height="65.29"/><rect class="cls-1" x="1226.26" y="866.4" width="65.29" height="65.29"/><rect class="cls-1" x="1226.26" y="801.11" width="65.29" height="65.29"/><rect class="cls-1" x="1226.26" y="735.82" width="65.29" height="65.29"/><rect class="cls-1" x="1226.26" y="670.53" width="65.29" height="65.29"/><rect class="cls-1" x="1226.26" y="605.24" width="65.29" height="65.29"/><rect class="cls-1" x="1226.26" y="539.94" width="65.29" height="65.29"/><rect class="cls-1" x="1291.55" y="1062.27" width="65.29" height="65.29"/><rect class="cls-1" x="1291.55" y="996.98" width="65.29" height="65.29"/><rect class="cls-1" x="1291.55" y="931.69" width="65.29" height="65.29"/><rect class="cls-1" x="1291.55" y="866.4" width="65.29" height="65.29"/><rect class="cls-1" x="1291.55" y="801.11" width="65.29" height="65.29"/><rect class="cls-1" x="1291.55" y="735.82" width="65.29" height="65.29"/><rect class="cls-1" x="1291.55" y="670.53" width="65.29" height="65.29"/><rect class="cls-1" x="1291.55" y="605.24" width="65.29" height="65.29"/><rect class="cls-1" x="1291.55" y="539.94" width="65.29" height="65.29"/><rect class="cls-1" x="1356.84" y="1062.27" width="65.29" height="65.29"/><rect class="cls-1" x="1356.84" y="996.98" width="65.29" height="65.29"/><rect class="cls-1" x="1356.84" y="931.69" width="65.29" height="65.29"/><rect class="cls-1" x="1356.84" y="866.4" width="65.29" height="65.29"/><rect class="cls-1" x="1356.84" y="801.11" width="65.29" height="65.29"/><rect class="cls-1" x="1356.84" y="735.82" width="65.29" height="65.29"/><rect class="cls-1" x="1356.84" y="670.53" width="65.29" height="65.29"/><rect class="cls-1" x="1356.84" y="605.24" width="65.29" height="65.29"/><rect class="cls-1" x="1356.84" y="539.94" width="65.29" height="65.29"/><rect class="cls-1" x="1422.13" y="1062.27" width="65.29" height="65.29"/><rect class="cls-1" x="1422.13" y="996.98" width="65.29" height="65.29"/><rect class="cls-1" x="1422.13" y="931.69" width="65.29" height="65.29"/><rect class="cls-1" x="1422.13" y="866.4" width="65.29" height="65.29"/><rect class="cls-1" x="1422.13" y="801.11" width="65.29" height="65.29"/><rect class="cls-1" x="1422.13" y="735.82" width="65.29" height="65.29"/><rect class="cls-1" x="1422.13" y="670.53" width="65.29" height="65.29"/><rect class="cls-1" x="1422.13" y="605.24" width="65.29" height="65.29"/><rect class="cls-1" x="1422.13" y="539.94" width="65.29" height="65.29"/><rect class="cls-1" x="1487.42" y="1062.27" width="65.29" height="65.29"/><rect class="cls-1" x="1487.42" y="996.98" width="65.29" height="65.29"/><rect class="cls-1" x="1487.42" y="931.69" width="65.29" height="65.29"/><rect class="cls-1" x="1487.42" y="866.4" width="65.29" height="65.29"/><rect class="cls-1" x="1487.42" y="801.11" width="65.29" height="65.29"/><rect class="cls-1" x="1487.42" y="735.82" width="65.29" height="65.29"/><rect class="cls-1" x="1487.42" y="670.53" width="65.29" height="65.29"/><rect class="cls-1" x="1487.42" y="605.24" width="65.29" height="65.29"/><rect class="cls-1" x="1487.42" y="539.94" width="65.29" height="65.29"/><rect class="cls-1" x="1552.71" y="1062.27" width="65.29" height="65.29"/><rect class="cls-1" x="1552.71" y="996.98" width="65.29" height="65.29"/><rect class="cls-1" x="1552.71" y="931.69" width="65.29" height="65.29"/><rect class="cls-1" x="1552.71" y="866.4" width="65.29" height="65.29"/><rect class="cls-1" x="1552.71" y="801.11" width="65.29" height="65.29"/><rect class="cls-1" x="1552.71" y="735.82" width="65.29" height="65.29"/><rect class="cls-1" x="1552.71" y="670.53" width="65.29" height="65.29"/><rect class="cls-1" x="1552.71" y="605.24" width="65.29" height="65.29"/><rect class="cls-1" x="1552.71" y="539.94" width="65.29" height="65.29"/><rect class="cls-1" x="1618" y="1062.27" width="65.29" height="65.29"/><rect class="cls-1" x="1618" y="996.98" width="65.29" height="65.29"/><rect class="cls-1" x="1618" y="931.69" width="65.29" height="65.29"/><rect class="cls-1" x="1618" y="866.4" width="65.29" height="65.29"/><rect class="cls-1" x="1618" y="801.11" width="65.29" height="65.29"/><rect class="cls-1" x="1618" y="735.82" width="65.29" height="65.29"/><rect class="cls-1" x="1618" y="670.53" width="65.29" height="65.29"/><rect class="cls-1" x="1618" y="605.24" width="65.29" height="65.29"/><rect class="cls-1" x="1618" y="539.94" width="65.29" height="65.29"/><rect class="cls-1" x="1683.29" y="1062.27" width="65.29" height="65.29"/><rect class="cls-1" x="1683.29" y="996.98" width="65.29" height="65.29"/><rect class="cls-1" x="1683.29" y="931.69" width="65.29" height="65.29"/><rect class="cls-1" x="1683.29" y="866.4" width="65.29" height="65.29"/><rect class="cls-1" x="1683.29" y="801.11" width="65.29" height="65.29"/><rect class="cls-1" x="1683.29" y="735.82" width="65.29" height="65.29"/><rect class="cls-1" x="1683.29" y="670.53" width="65.29" height="65.29"/><rect class="cls-1" x="1683.29" y="605.24" width="65.29" height="65.29"/><rect class="cls-1" x="1683.29" y="539.94" width="65.29" height="65.29"/><rect class="cls-1" x="1748.58" y="1062.27" width="65.29" height="65.29"/><rect class="cls-1" x="1748.58" y="996.98" width="65.29" height="65.29"/><rect class="cls-1" x="1748.58" y="931.69" width="65.29" height="65.29"/><rect class="cls-1" x="1748.58" y="866.4" width="65.29" height="65.29"/><rect class="cls-1" x="1748.58" y="801.11" width="65.29" height="65.29"/><rect class="cls-1" x="1748.58" y="735.82" width="65.29" height="65.29"/><rect class="cls-1" x="1748.58" y="670.53" width="65.29" height="65.29"/><rect class="cls-1" x="1748.58" y="605.24" width="65.29" height="65.29"/><rect class="cls-1" x="1748.58" y="539.94" width="65.29" height="65.29"/><rect class="cls-1" x="1813.87" y="1062.27" width="65.29" height="65.29"/><rect class="cls-1" x="1813.87" y="996.98" width="65.29" height="65.29"/><rect class="cls-1" x="1813.87" y="931.69" width="65.29" height="65.29"/><rect class="cls-1" x="1813.87" y="866.4" width="65.29" height="65.29"/><rect class="cls-1" x="1813.87" y="801.11" width="65.29" height="65.29"/><rect class="cls-1" x="1813.87" y="735.82" width="65.29" height="65.29"/><rect class="cls-1" x="1813.87" y="670.53" width="65.29" height="65.29"/><rect class="cls-1" x="1813.87" y="605.24" width="65.29" height="65.29"/><rect class="cls-1" x="1813.87" y="539.94" width="65.29" height="65.29"/><rect class="cls-1" x="1879.16" y="1062.27" width="65.29" height="65.29"/><rect class="cls-1" x="1879.16" y="996.98" width="65.29" height="65.29"/><rect class="cls-1" x="1879.16" y="931.69" width="65.29" height="65.29"/><rect class="cls-1" x="1879.16" y="866.4" width="65.29" height="65.29"/><rect class="cls-1" x="1879.16" y="801.11" width="65.29" height="65.29"/><rect class="cls-1" x="1879.16" y="735.82" width="65.29" height="65.29"/><rect class="cls-1" x="1879.16" y="670.53" width="65.29" height="65.29"/><rect class="cls-1" x="1879.16" y="605.24" width="65.29" height="65.29"/><rect class="cls-1" x="1879.16" y="539.94" width="65.29" height="65.29"/></g><g id="клетки-2" data-name="клетки"><rect class="cls-1" x="965.1" y="474.65" width="65.29" height="65.29"/><rect class="cls-1" x="965.1" y="409.36" width="65.29" height="65.29"/><rect class="cls-1" x="965.1" y="344.07" width="65.29" height="65.29"/><rect class="cls-1" x="965.1" y="278.78" width="65.29" height="65.29"/><rect class="cls-1" x="965.1" y="213.49" width="65.29" height="65.29"/><rect class="cls-1" x="965.1" y="148.2" width="65.29" height="65.29"/><rect class="cls-1" x="965.1" y="82.91" width="65.29" height="65.29"/><rect class="cls-1" x="965.1" y="17.62" width="65.29" height="65.29"/><rect class="cls-1" x="965.1" y="-47.67" width="65.29" height="65.29"/><rect class="cls-1" x="1030.39" y="474.65" width="65.29" height="65.29"/><rect class="cls-1" x="1030.39" y="409.36" width="65.29" height="65.29"/><rect class="cls-1" x="1030.39" y="344.07" width="65.29" height="65.29"/><rect class="cls-1" x="1030.39" y="278.78" width="65.29" height="65.29"/><rect class="cls-1" x="1030.39" y="213.49" width="65.29" height="65.29"/><rect class="cls-1" x="1030.39" y="148.2" width="65.29" height="65.29"/><rect class="cls-1" x="1030.39" y="82.91" width="65.29" height="65.29"/><rect class="cls-1" x="1030.39" y="17.62" width="65.29" height="65.29"/><rect class="cls-1" x="1030.39" y="-47.67" width="65.29" height="65.29"/><rect class="cls-1" x="1095.68" y="474.65" width="65.29" height="65.29"/><rect class="cls-1" x="1095.68" y="409.36" width="65.29" height="65.29"/><rect class="cls-1" x="1095.68" y="344.07" width="65.29" height="65.29"/><rect class="cls-1" x="1095.68" y="278.78" width="65.29" height="65.29"/><rect class="cls-1" x="1095.68" y="213.49" width="65.29" height="65.29"/><rect class="cls-1" x="1095.68" y="148.2" width="65.29" height="65.29"/><rect class="cls-1" x="1095.68" y="82.91" width="65.29" height="65.29"/><rect class="cls-1" x="1095.68" y="17.62" width="65.29" height="65.29"/><rect class="cls-1" x="1095.68" y="-47.67" width="65.29" height="65.29"/><rect class="cls-1" x="1160.97" y="474.65" width="65.29" height="65.29"/><rect class="cls-1" x="1160.97" y="409.36" width="65.29" height="65.29"/><rect class="cls-1" x="1160.97" y="344.07" width="65.29" height="65.29"/><rect class="cls-1" x="1160.97" y="278.78" width="65.29" height="65.29"/><rect class="cls-1" x="1160.97" y="213.49" width="65.29" height="65.29"/><rect class="cls-1" x="1160.97" y="148.2" width="65.29" height="65.29"/><rect class="cls-1" x="1160.97" y="82.91" width="65.29" height="65.29"/><rect class="cls-1" x="1160.97" y="17.62" width="65.29" height="65.29"/><rect class="cls-1" x="1160.97" y="-47.67" width="65.29" height="65.29"/><rect class="cls-1" x="1226.26" y="474.65" width="65.29" height="65.29"/><rect class="cls-1" x="1226.26" y="409.36" width="65.29" height="65.29"/><rect class="cls-1" x="1226.26" y="344.07" width="65.29" height="65.29"/><rect class="cls-1" x="1226.26" y="278.78" width="65.29" height="65.29"/><rect class="cls-1" x="1226.26" y="213.49" width="65.29" height="65.29"/><rect class="cls-1" x="1226.26" y="148.2" width="65.29" height="65.29"/><rect class="cls-1" x="1226.26" y="82.91" width="65.29" height="65.29"/><rect class="cls-1" x="1226.26" y="17.62" width="65.29" height="65.29"/><rect class="cls-1" x="1226.26" y="-47.67" width="65.29" height="65.29"/><rect class="cls-1" x="1291.55" y="474.65" width="65.29" height="65.29"/><rect class="cls-1" x="1291.55" y="409.36" width="65.29" height="65.29"/><rect class="cls-1" x="1291.55" y="344.07" width="65.29" height="65.29"/><rect class="cls-1" x="1291.55" y="278.78" width="65.29" height="65.29"/><rect class="cls-1" x="1291.55" y="213.49" width="65.29" height="65.29"/><rect class="cls-1" x="1291.55" y="148.2" width="65.29" height="65.29"/><rect class="cls-1" x="1291.55" y="82.91" width="65.29" height="65.29"/><rect class="cls-1" x="1291.55" y="17.62" width="65.29" height="65.29"/><rect class="cls-1" x="1291.55" y="-47.67" width="65.29" height="65.29"/><rect class="cls-1" x="1356.84" y="474.65" width="65.29" height="65.29"/><rect class="cls-1" x="1356.84" y="409.36" width="65.29" height="65.29"/><rect class="cls-1" x="1356.84" y="344.07" width="65.29" height="65.29"/><rect class="cls-1" x="1356.84" y="278.78" width="65.29" height="65.29"/><rect class="cls-1" x="1356.84" y="213.49" width="65.29" height="65.29"/><rect class="cls-1" x="1356.84" y="148.2" width="65.29" height="65.29"/><rect class="cls-1" x="1356.84" y="82.91" width="65.29" height="65.29"/><rect class="cls-1" x="1356.84" y="17.62" width="65.29" height="65.29"/><rect class="cls-1" x="1356.84" y="-47.67" width="65.29" height="65.29"/><rect class="cls-1" x="1422.13" y="474.65" width="65.29" height="65.29"/><rect class="cls-1" x="1422.13" y="409.36" width="65.29" height="65.29"/><rect class="cls-1" x="1422.13" y="344.07" width="65.29" height="65.29"/><rect class="cls-1" x="1422.13" y="278.78" width="65.29" height="65.29"/><rect class="cls-1" x="1422.13" y="213.49" width="65.29" height="65.29"/><rect class="cls-1" x="1422.13" y="148.2" width="65.29" height="65.29"/><rect class="cls-1" x="1422.13" y="82.91" width="65.29" height="65.29"/><rect class="cls-1" x="1422.13" y="17.62" width="65.29" height="65.29"/><rect class="cls-1" x="1422.13" y="-47.67" width="65.29" height="65.29"/><rect class="cls-1" x="1487.42" y="474.65" width="65.29" height="65.29"/><rect class="cls-1" x="1487.42" y="409.36" width="65.29" height="65.29"/><rect class="cls-1" x="1487.42" y="344.07" width="65.29" height="65.29"/><rect class="cls-1" x="1487.42" y="278.78" width="65.29" height="65.29"/><rect class="cls-1" x="1487.42" y="213.49" width="65.29" height="65.29"/><rect class="cls-1" x="1487.42" y="148.2" width="65.29" height="65.29"/><rect class="cls-1" x="1487.42" y="82.91" width="65.29" height="65.29"/><rect class="cls-1" x="1487.42" y="17.62" width="65.29" height="65.29"/><rect class="cls-1" x="1487.42" y="-47.67" width="65.29" height="65.29"/><rect class="cls-1" x="1552.71" y="474.65" width="65.29" height="65.29"/><rect class="cls-1" x="1552.71" y="409.36" width="65.29" height="65.29"/><rect class="cls-1" x="1552.71" y="344.07" width="65.29" height="65.29"/><rect class="cls-1" x="1552.71" y="278.78" width="65.29" height="65.29"/><rect class="cls-1" x="1552.71" y="213.49" width="65.29" height="65.29"/><rect class="cls-1" x="1552.71" y="148.2" width="65.29" height="65.29"/><rect class="cls-1" x="1552.71" y="82.91" width="65.29" height="65.29"/><rect class="cls-1" x="1552.71" y="17.62" width="65.29" height="65.29"/><rect class="cls-1" x="1552.71" y="-47.67" width="65.29" height="65.29"/><rect class="cls-1" x="1618" y="474.65" width="65.29" height="65.29"/><rect class="cls-1" x="1618" y="409.36" width="65.29" height="65.29"/><rect class="cls-1" x="1618" y="344.07" width="65.29" height="65.29"/><rect class="cls-1" x="1618" y="278.78" width="65.29" height="65.29"/><rect class="cls-1" x="1618" y="213.49" width="65.29" height="65.29"/><rect class="cls-1" x="1618" y="148.2" width="65.29" height="65.29"/><rect class="cls-1" x="1618" y="82.91" width="65.29" height="65.29"/><rect class="cls-1" x="1618" y="17.62" width="65.29" height="65.29"/><rect class="cls-1" x="1618" y="-47.67" width="65.29" height="65.29"/><rect class="cls-1" x="1683.29" y="474.65" width="65.29" height="65.29"/><rect class="cls-1" x="1683.29" y="409.36" width="65.29" height="65.29"/><rect class="cls-1" x="1683.29" y="344.07" width="65.29" height="65.29"/><rect class="cls-1" x="1683.29" y="278.78" width="65.29" height="65.29"/><rect class="cls-1" x="1683.29" y="213.49" width="65.29" height="65.29"/><rect class="cls-1" x="1683.29" y="148.2" width="65.29" height="65.29"/><rect class="cls-1" x="1683.29" y="82.91" width="65.29" height="65.29"/><rect class="cls-1" x="1683.29" y="17.62" width="65.29" height="65.29"/><rect class="cls-1" x="1683.29" y="-47.67" width="65.29" height="65.29"/><rect class="cls-1" x="1748.58" y="474.65" width="65.29" height="65.29"/><rect class="cls-1" x="1748.58" y="409.36" width="65.29" height="65.29"/><rect class="cls-1" x="1748.58" y="344.07" width="65.29" height="65.29"/><rect class="cls-1" x="1748.58" y="278.78" width="65.29" height="65.29"/><rect class="cls-1" x="1748.58" y="213.49" width="65.29" height="65.29"/><rect class="cls-1" x="1748.58" y="148.2" width="65.29" height="65.29"/><rect class="cls-1" x="1748.58" y="82.91" width="65.29" height="65.29"/><rect class="cls-1" x="1748.58" y="17.62" width="65.29" height="65.29"/><rect class="cls-1" x="1748.58" y="-47.67" width="65.29" height="65.29"/><rect class="cls-1" x="1813.87" y="474.65" width="65.29" height="65.29"/><rect class="cls-1" x="1813.87" y="409.36" width="65.29" height="65.29"/><rect class="cls-1" x="1813.87" y="344.07" width="65.29" height="65.29"/><rect class="cls-1" x="1813.87" y="278.78" width="65.29" height="65.29"/><rect class="cls-1" x="1813.87" y="213.49" width="65.29" height="65.29"/><rect class="cls-1" x="1813.87" y="148.2" width="65.29" height="65.29"/><rect class="cls-1" x="1813.87" y="82.91" width="65.29" height="65.29"/><rect class="cls-1" x="1813.87" y="17.62" width="65.29" height="65.29"/><rect class="cls-1" x="1813.87" y="-47.67" width="65.29" height="65.29"/><rect class="cls-1" x="1879.16" y="474.65" width="65.29" height="65.29"/><rect class="cls-1" x="1879.16" y="409.36" width="65.29" height="65.29"/><rect class="cls-1" x="1879.16" y="344.07" width="65.29" height="65.29"/><rect class="cls-1" x="1879.16" y="278.78" width="65.29" height="65.29"/><rect class="cls-1" x="1879.16" y="213.49" width="65.29" height="65.29"/><rect class="cls-1" x="1879.16" y="148.2" width="65.29" height="65.29"/><rect class="cls-1" x="1879.16" y="82.91" width="65.29" height="65.29"/><rect class="cls-1" x="1879.16" y="17.62" width="65.29" height="65.29"/><rect class="cls-1" x="1879.16" y="-47.67" width="65.29" height="65.29"/></g><g id="клетки-3" data-name="клетки"><rect class="cls-1" x="-14.26" y="474.65" width="65.29" height="65.29"/><rect class="cls-1" x="-14.26" y="409.36" width="65.29" height="65.29"/><rect class="cls-1" x="-14.26" y="344.07" width="65.29" height="65.29"/><rect class="cls-1" x="-14.26" y="278.78" width="65.29" height="65.29"/><rect class="cls-1" x="-14.26" y="213.49" width="65.29" height="65.29"/><rect class="cls-1" x="-14.26" y="148.2" width="65.29" height="65.29"/><rect class="cls-1" x="-14.26" y="82.91" width="65.29" height="65.29"/><rect class="cls-1" x="-14.26" y="17.62" width="65.29" height="65.29"/><rect class="cls-1" x="-14.26" y="-47.67" width="65.29" height="65.29"/><rect class="cls-1" x="51.03" y="474.65" width="65.29" height="65.29"/><rect class="cls-1" x="51.03" y="409.36" width="65.29" height="65.29"/><rect class="cls-1" x="51.03" y="344.07" width="65.29" height="65.29"/><rect class="cls-1" x="51.03" y="278.78" width="65.29" height="65.29"/><rect class="cls-1" x="51.03" y="213.49" width="65.29" height="65.29"/><rect class="cls-1" x="51.03" y="148.2" width="65.29" height="65.29"/><rect class="cls-1" x="51.03" y="82.91" width="65.29" height="65.29"/><rect class="cls-1" x="51.03" y="17.62" width="65.29" height="65.29"/><rect class="cls-1" x="51.03" y="-47.67" width="65.29" height="65.29"/><rect class="cls-1" x="116.32" y="474.65" width="65.29" height="65.29"/><rect class="cls-1" x="116.32" y="409.36" width="65.29" height="65.29"/><rect class="cls-1" x="116.32" y="344.07" width="65.29" height="65.29"/><rect class="cls-1" x="116.32" y="278.78" width="65.29" height="65.29"/><rect class="cls-1" x="116.32" y="213.49" width="65.29" height="65.29"/><rect class="cls-1" x="116.32" y="148.2" width="65.29" height="65.29"/><rect class="cls-1" x="116.32" y="82.91" width="65.29" height="65.29"/><rect class="cls-1" x="116.32" y="17.62" width="65.29" height="65.29"/><rect class="cls-1" x="116.32" y="-47.67" width="65.29" height="65.29"/><rect class="cls-1" x="181.61" y="474.65" width="65.29" height="65.29"/><rect class="cls-1" x="181.61" y="409.36" width="65.29" height="65.29"/><rect class="cls-1" x="181.61" y="344.07" width="65.29" height="65.29"/><rect class="cls-1" x="181.61" y="278.78" width="65.29" height="65.29"/><rect class="cls-1" x="181.61" y="213.49" width="65.29" height="65.29"/><rect class="cls-1" x="181.61" y="148.2" width="65.29" height="65.29"/><rect class="cls-1" x="181.61" y="82.91" width="65.29" height="65.29"/><rect class="cls-1" x="181.61" y="17.62" width="65.29" height="65.29"/><rect class="cls-1" x="181.61" y="-47.67" width="65.29" height="65.29"/><rect class="cls-1" x="246.9" y="474.65" width="65.29" height="65.29"/><rect class="cls-1" x="246.9" y="409.36" width="65.29" height="65.29"/><rect class="cls-1" x="246.9" y="344.07" width="65.29" height="65.29"/><rect class="cls-1" x="246.9" y="278.78" width="65.29" height="65.29"/><rect class="cls-1" x="246.9" y="213.49" width="65.29" height="65.29"/><rect class="cls-1" x="246.9" y="148.2" width="65.29" height="65.29"/><rect class="cls-1" x="246.9" y="82.91" width="65.29" height="65.29"/><rect class="cls-1" x="246.9" y="17.62" width="65.29" height="65.29"/><rect class="cls-1" x="246.9" y="-47.67" width="65.29" height="65.29"/><rect class="cls-1" x="312.19" y="474.65" width="65.29" height="65.29"/><rect class="cls-1" x="312.19" y="409.36" width="65.29" height="65.29"/><rect class="cls-1" x="312.19" y="344.07" width="65.29" height="65.29"/><rect class="cls-1" x="312.19" y="278.78" width="65.29" height="65.29"/><rect class="cls-1" x="312.19" y="213.49" width="65.29" height="65.29"/><rect class="cls-1" x="312.19" y="148.2" width="65.29" height="65.29"/><rect class="cls-1" x="312.19" y="82.91" width="65.29" height="65.29"/><rect class="cls-1" x="312.19" y="17.62" width="65.29" height="65.29"/><rect class="cls-1" x="312.19" y="-47.67" width="65.29" height="65.29"/><rect class="cls-1" x="377.48" y="474.65" width="65.29" height="65.29"/><rect class="cls-1" x="377.48" y="409.36" width="65.29" height="65.29"/><rect class="cls-1" x="377.48" y="344.07" width="65.29" height="65.29"/><rect class="cls-1" x="377.48" y="278.78" width="65.29" height="65.29"/><rect class="cls-1" x="377.48" y="213.49" width="65.29" height="65.29"/><rect class="cls-1" x="377.48" y="148.2" width="65.29" height="65.29"/><rect class="cls-1" x="377.48" y="82.91" width="65.29" height="65.29"/><rect class="cls-1" x="377.48" y="17.62" width="65.29" height="65.29"/><rect class="cls-1" x="377.48" y="-47.67" width="65.29" height="65.29"/><rect class="cls-1" x="442.77" y="474.65" width="65.29" height="65.29"/><rect class="cls-1" x="442.77" y="409.36" width="65.29" height="65.29"/><rect class="cls-1" x="442.77" y="344.07" width="65.29" height="65.29"/><rect class="cls-1" x="442.77" y="278.78" width="65.29" height="65.29"/><rect class="cls-1" x="442.77" y="213.49" width="65.29" height="65.29"/><rect class="cls-1" x="442.77" y="148.2" width="65.29" height="65.29"/><rect class="cls-1" x="442.77" y="82.91" width="65.29" height="65.29"/><rect class="cls-1" x="442.77" y="17.62" width="65.29" height="65.29"/><rect class="cls-1" x="442.77" y="-47.67" width="65.29" height="65.29"/><rect class="cls-1" x="508.06" y="474.65" width="65.29" height="65.29"/><rect class="cls-1" x="508.06" y="409.36" width="65.29" height="65.29"/><rect class="cls-1" x="508.06" y="344.07" width="65.29" height="65.29"/><rect class="cls-1" x="508.06" y="278.78" width="65.29" height="65.29"/><rect class="cls-1" x="508.06" y="213.49" width="65.29" height="65.29"/><rect class="cls-1" x="508.06" y="148.2" width="65.29" height="65.29"/><rect class="cls-1" x="508.06" y="82.91" width="65.29" height="65.29"/><rect class="cls-1" x="508.06" y="17.62" width="65.29" height="65.29"/><rect class="cls-1" x="508.06" y="-47.67" width="65.29" height="65.29"/><rect class="cls-1" x="573.35" y="474.65" width="65.29" height="65.29"/><rect class="cls-1" x="573.35" y="409.36" width="65.29" height="65.29"/><rect class="cls-1" x="573.35" y="344.07" width="65.29" height="65.29"/><rect class="cls-1" x="573.35" y="278.78" width="65.29" height="65.29"/><rect class="cls-1" x="573.35" y="213.49" width="65.29" height="65.29"/><rect class="cls-1" x="573.35" y="148.2" width="65.29" height="65.29"/><rect class="cls-1" x="573.35" y="82.91" width="65.29" height="65.29"/><rect class="cls-1" x="573.35" y="17.62" width="65.29" height="65.29"/><rect class="cls-1" x="573.35" y="-47.67" width="65.29" height="65.29"/><rect class="cls-1" x="638.64" y="474.65" width="65.29" height="65.29"/><rect class="cls-1" x="638.64" y="409.36" width="65.29" height="65.29"/><rect class="cls-1" x="638.64" y="344.07" width="65.29" height="65.29"/><rect class="cls-1" x="638.64" y="278.78" width="65.29" height="65.29"/><rect class="cls-1" x="638.64" y="213.49" width="65.29" height="65.29"/><rect class="cls-1" x="638.64" y="148.2" width="65.29" height="65.29"/><rect class="cls-1" x="638.64" y="82.91" width="65.29" height="65.29"/><rect class="cls-1" x="638.64" y="17.62" width="65.29" height="65.29"/><rect class="cls-1" x="638.64" y="-47.67" width="65.29" height="65.29"/><rect class="cls-1" x="703.93" y="474.65" width="65.29" height="65.29"/><rect class="cls-1" x="703.93" y="409.36" width="65.29" height="65.29"/><rect class="cls-1" x="703.93" y="344.07" width="65.29" height="65.29"/><rect class="cls-1" x="703.93" y="278.78" width="65.29" height="65.29"/><rect class="cls-1" x="703.93" y="213.49" width="65.29" height="65.29"/><rect class="cls-1" x="703.93" y="148.2" width="65.29" height="65.29"/><rect class="cls-1" x="703.93" y="82.91" width="65.29" height="65.29"/><rect class="cls-1" x="703.93" y="17.62" width="65.29" height="65.29"/><rect class="cls-1" x="703.93" y="-47.67" width="65.29" height="65.29"/><rect class="cls-1" x="769.22" y="474.65" width="65.29" height="65.29"/><rect class="cls-1" x="769.22" y="409.36" width="65.29" height="65.29"/><rect class="cls-1" x="769.22" y="344.07" width="65.29" height="65.29"/><rect class="cls-1" x="769.22" y="278.78" width="65.29" height="65.29"/><rect class="cls-1" x="769.22" y="213.49" width="65.29" height="65.29"/><rect class="cls-1" x="769.22" y="148.2" width="65.29" height="65.29"/><rect class="cls-1" x="769.22" y="82.91" width="65.29" height="65.29"/><rect class="cls-1" x="769.22" y="17.62" width="65.29" height="65.29"/><rect class="cls-1" x="769.22" y="-47.67" width="65.29" height="65.29"/><rect class="cls-1" x="834.51" y="474.65" width="65.29" height="65.29"/><rect class="cls-1" x="834.51" y="409.36" width="65.29" height="65.29"/><rect class="cls-1" x="834.51" y="344.07" width="65.29" height="65.29"/><rect class="cls-1" x="834.51" y="278.78" width="65.29" height="65.29"/><rect class="cls-1" x="834.51" y="213.49" width="65.29" height="65.29"/><rect class="cls-1" x="834.51" y="148.2" width="65.29" height="65.29"/><rect class="cls-1" x="834.51" y="82.91" width="65.29" height="65.29"/><rect class="cls-1" x="834.51" y="17.62" width="65.29" height="65.29"/><rect class="cls-1" x="834.51" y="-47.67" width="65.29" height="65.29"/><rect class="cls-1" x="899.8" y="474.65" width="65.29" height="65.29"/><rect class="cls-1" x="899.8" y="409.36" width="65.29" height="65.29"/><rect class="cls-1" x="899.8" y="344.07" width="65.29" height="65.29"/><rect class="cls-1" x="899.8" y="278.78" width="65.29" height="65.29"/><rect class="cls-1" x="899.8" y="213.49" width="65.29" height="65.29"/><rect class="cls-1" x="899.8" y="148.2" width="65.29" height="65.29"/><rect class="cls-1" x="899.8" y="82.91" width="65.29" height="65.29"/><rect class="cls-1" x="899.8" y="17.62" width="65.29" height="65.29"/><rect class="cls-1" x="899.8" y="-47.67" width="65.29" height="65.29"/></g><g id="клетки-4" data-name="клетки"><rect class="cls-1" x="-14.26" y="1062.27" width="65.29" height="65.29"/><rect class="cls-1" x="-14.26" y="996.98" width="65.29" height="65.29"/><rect class="cls-1" x="-14.26" y="931.69" width="65.29" height="65.29"/><rect class="cls-1" x="-14.26" y="866.4" width="65.29" height="65.29"/><rect class="cls-1" x="-14.26" y="801.11" width="65.29" height="65.29"/><rect class="cls-1" x="-14.26" y="735.82" width="65.29" height="65.29"/><rect class="cls-1" x="-14.26" y="670.53" width="65.29" height="65.29"/><rect class="cls-1" x="-14.26" y="605.24" width="65.29" height="65.29"/><rect class="cls-1" x="-14.26" y="539.94" width="65.29" height="65.29"/><rect class="cls-1" x="51.03" y="1062.27" width="65.29" height="65.29"/><rect class="cls-1" x="51.03" y="996.98" width="65.29" height="65.29"/><rect class="cls-1" x="51.03" y="931.69" width="65.29" height="65.29"/><rect class="cls-1" x="51.03" y="866.4" width="65.29" height="65.29"/><rect class="cls-1" x="51.03" y="801.11" width="65.29" height="65.29"/><rect class="cls-1" x="51.03" y="735.82" width="65.29" height="65.29"/><rect class="cls-1" x="51.03" y="670.53" width="65.29" height="65.29"/><rect class="cls-1" x="51.03" y="605.24" width="65.29" height="65.29"/><rect class="cls-1" x="51.03" y="539.94" width="65.29" height="65.29"/><rect class="cls-1" x="116.32" y="1062.27" width="65.29" height="65.29"/><rect class="cls-1" x="116.32" y="996.98" width="65.29" height="65.29"/><rect class="cls-1" x="116.32" y="931.69" width="65.29" height="65.29"/><rect class="cls-1" x="116.32" y="866.4" width="65.29" height="65.29"/><rect class="cls-1" x="116.32" y="801.11" width="65.29" height="65.29"/><rect class="cls-1" x="116.32" y="735.82" width="65.29" height="65.29"/><rect class="cls-1" x="116.32" y="670.53" width="65.29" height="65.29"/><rect class="cls-1" x="116.32" y="605.24" width="65.29" height="65.29"/><rect class="cls-1" x="116.32" y="539.94" width="65.29" height="65.29"/><rect class="cls-1" x="181.61" y="1062.27" width="65.29" height="65.29"/><rect class="cls-1" x="181.61" y="996.98" width="65.29" height="65.29"/><rect class="cls-1" x="181.61" y="931.69" width="65.29" height="65.29"/><rect class="cls-1" x="181.61" y="866.4" width="65.29" height="65.29"/><rect class="cls-1" x="181.61" y="801.11" width="65.29" height="65.29"/><rect class="cls-1" x="181.61" y="735.82" width="65.29" height="65.29"/><rect class="cls-1" x="181.61" y="670.53" width="65.29" height="65.29"/><rect class="cls-1" x="181.61" y="605.24" width="65.29" height="65.29"/><rect class="cls-1" x="181.61" y="539.94" width="65.29" height="65.29"/><rect class="cls-1" x="246.9" y="1062.27" width="65.29" height="65.29"/><rect class="cls-1" x="246.9" y="996.98" width="65.29" height="65.29"/><rect class="cls-1" x="246.9" y="931.69" width="65.29" height="65.29"/><rect class="cls-1" x="246.9" y="866.4" width="65.29" height="65.29"/><rect class="cls-1" x="246.9" y="801.11" width="65.29" height="65.29"/><rect class="cls-1" x="246.9" y="735.82" width="65.29" height="65.29"/><rect class="cls-1" x="246.9" y="670.53" width="65.29" height="65.29"/><rect class="cls-1" x="246.9" y="605.24" width="65.29" height="65.29"/><rect class="cls-1" x="246.9" y="539.94" width="65.29" height="65.29"/><rect class="cls-1" x="312.19" y="1062.27" width="65.29" height="65.29"/><rect class="cls-1" x="312.19" y="996.98" width="65.29" height="65.29"/><rect class="cls-1" x="312.19" y="931.69" width="65.29" height="65.29"/><rect class="cls-1" x="312.19" y="866.4" width="65.29" height="65.29"/><rect class="cls-1" x="312.19" y="801.11" width="65.29" height="65.29"/><rect class="cls-1" x="312.19" y="735.82" width="65.29" height="65.29"/><rect class="cls-1" x="312.19" y="670.53" width="65.29" height="65.29"/><rect class="cls-1" x="312.19" y="605.24" width="65.29" height="65.29"/><rect class="cls-1" x="312.19" y="539.94" width="65.29" height="65.29"/><rect class="cls-1" x="377.48" y="1062.27" width="65.29" height="65.29"/><rect class="cls-1" x="377.48" y="996.98" width="65.29" height="65.29"/><rect class="cls-1" x="377.48" y="931.69" width="65.29" height="65.29"/><rect class="cls-1" x="377.48" y="866.4" width="65.29" height="65.29"/><rect class="cls-1" x="377.48" y="801.11" width="65.29" height="65.29"/><rect class="cls-1" x="377.48" y="735.82" width="65.29" height="65.29"/><rect class="cls-1" x="377.48" y="670.53" width="65.29" height="65.29"/><rect class="cls-1" x="377.48" y="605.24" width="65.29" height="65.29"/><rect class="cls-1" x="377.48" y="539.94" width="65.29" height="65.29"/><rect class="cls-1" x="442.77" y="1062.27" width="65.29" height="65.29"/><rect class="cls-1" x="442.77" y="996.98" width="65.29" height="65.29"/><rect class="cls-1" x="442.77" y="931.69" width="65.29" height="65.29"/><rect class="cls-1" x="442.77" y="866.4" width="65.29" height="65.29"/><rect class="cls-1" x="442.77" y="801.11" width="65.29" height="65.29"/><rect class="cls-1" x="442.77" y="735.82" width="65.29" height="65.29"/><rect class="cls-1" x="442.77" y="670.53" width="65.29" height="65.29"/><rect class="cls-1" x="442.77" y="605.24" width="65.29" height="65.29"/><rect class="cls-1" x="442.77" y="539.94" width="65.29" height="65.29"/><rect class="cls-1" x="508.06" y="1062.27" width="65.29" height="65.29"/><rect class="cls-1" x="508.06" y="996.98" width="65.29" height="65.29"/><rect class="cls-1" x="508.06" y="931.69" width="65.29" height="65.29"/><rect class="cls-1" x="508.06" y="866.4" width="65.29" height="65.29"/><rect class="cls-1" x="508.06" y="801.11" width="65.29" height="65.29"/><rect class="cls-1" x="508.06" y="735.82" width="65.29" height="65.29"/><rect class="cls-1" x="508.06" y="670.53" width="65.29" height="65.29"/><rect class="cls-1" x="508.06" y="605.24" width="65.29" height="65.29"/><rect class="cls-1" x="508.06" y="539.94" width="65.29" height="65.29"/><rect class="cls-1" x="573.35" y="1062.27" width="65.29" height="65.29"/><rect class="cls-1" x="573.35" y="996.98" width="65.29" height="65.29"/><rect class="cls-1" x="573.35" y="931.69" width="65.29" height="65.29"/><rect class="cls-1" x="573.35" y="866.4" width="65.29" height="65.29"/><rect class="cls-1" x="573.35" y="801.11" width="65.29" height="65.29"/><rect class="cls-1" x="573.35" y="735.82" width="65.29" height="65.29"/><rect class="cls-1" x="573.35" y="670.53" width="65.29" height="65.29"/><rect class="cls-1" x="573.35" y="605.24" width="65.29" height="65.29"/><rect class="cls-1" x="573.35" y="539.94" width="65.29" height="65.29"/><rect class="cls-1" x="638.64" y="1062.27" width="65.29" height="65.29"/><rect class="cls-1" x="638.64" y="996.98" width="65.29" height="65.29"/><rect class="cls-1" x="638.64" y="931.69" width="65.29" height="65.29"/><rect class="cls-1" x="638.64" y="866.4" width="65.29" height="65.29"/><rect class="cls-1" x="638.64" y="801.11" width="65.29" height="65.29"/><rect class="cls-1" x="638.64" y="735.82" width="65.29" height="65.29"/><rect class="cls-1" x="638.64" y="670.53" width="65.29" height="65.29"/><rect class="cls-1" x="638.64" y="605.24" width="65.29" height="65.29"/><rect class="cls-1" x="638.64" y="539.94" width="65.29" height="65.29"/><rect class="cls-1" x="703.93" y="1062.27" width="65.29" height="65.29"/><rect class="cls-1" x="703.93" y="996.98" width="65.29" height="65.29"/><rect class="cls-1" x="703.93" y="931.69" width="65.29" height="65.29"/><rect class="cls-1" x="703.93" y="866.4" width="65.29" height="65.29"/><rect class="cls-1" x="703.93" y="801.11" width="65.29" height="65.29"/><rect class="cls-1" x="703.93" y="735.82" width="65.29" height="65.29"/><rect class="cls-1" x="703.93" y="670.53" width="65.29" height="65.29"/><rect class="cls-1" x="703.93" y="605.24" width="65.29" height="65.29"/><rect class="cls-1" x="703.93" y="539.94" width="65.29" height="65.29"/><rect class="cls-1" x="769.22" y="1062.27" width="65.29" height="65.29"/><rect class="cls-1" x="769.22" y="996.98" width="65.29" height="65.29"/><rect class="cls-1" x="769.22" y="931.69" width="65.29" height="65.29"/><rect class="cls-1" x="769.22" y="866.4" width="65.29" height="65.29"/><rect class="cls-1" x="769.22" y="801.11" width="65.29" height="65.29"/><rect class="cls-1" x="769.22" y="735.82" width="65.29" height="65.29"/><rect class="cls-1" x="769.22" y="670.53" width="65.29" height="65.29"/><rect class="cls-1" x="769.22" y="605.24" width="65.29" height="65.29"/><rect class="cls-1" x="769.22" y="539.94" width="65.29" height="65.29"/><rect class="cls-1" x="834.51" y="1062.27" width="65.29" height="65.29"/><rect class="cls-1" x="834.51" y="996.98" width="65.29" height="65.29"/><rect class="cls-1" x="834.51" y="931.69" width="65.29" height="65.29"/><rect class="cls-1" x="834.51" y="866.4" width="65.29" height="65.29"/><rect class="cls-1" x="834.51" y="801.11" width="65.29" height="65.29"/><rect class="cls-1" x="834.51" y="735.82" width="65.29" height="65.29"/><rect class="cls-1" x="834.51" y="670.53" width="65.29" height="65.29"/><rect class="cls-1" x="834.51" y="605.24" width="65.29" height="65.29"/><rect class="cls-1" x="834.51" y="539.94" width="65.29" height="65.29"/><rect class="cls-1" x="899.8" y="1062.27" width="65.29" height="65.29"/><rect class="cls-1" x="899.8" y="996.98" width="65.29" height="65.29"/><rect class="cls-1" x="899.8" y="931.69" width="65.29" height="65.29"/><rect class="cls-1" x="899.8" y="866.4" width="65.29" height="65.29"/><rect class="cls-1" x="899.8" y="801.11" width="65.29" height="65.29"/><rect class="cls-1" x="899.8" y="735.82" width="65.29" height="65.29"/><rect class="cls-1" x="899.8" y="670.53" width="65.29" height="65.29"/><rect class="cls-1" x="899.8" y="605.24" width="65.29" height="65.29"/><rect class="cls-1" x="899.8" y="539.94" width="65.29" height="65.29"/></g></g></g></svg>