<svg id="Слой_1" data-name="Слой 1" xmlns="http://www.w3.org/2000/svg" viewBox="0 0 1768.99 1069.71"><defs><style>.cls-1{fill:#fff;}</style></defs><title>нарды</title><path class="cls-1" d="M329.89,319.89V0H444.68V535.7H332.54L114.6,215.81V535.7H-.21V0H114.6Z"/><path class="cls-1" d="M659.31,0l52,535.7H596.56L585.08,409.43H458.81L447.33,535.7H332.54L384.58,0ZM575.12,294.64,558.29,114.79H485.6L468.75,294.64Z"/><path class="cls-1" d="M1004.56,0V355.87H932.62l98,179.83H900.48L814,359.69H759.66v176H644.86V0ZM759.66,244.89H889.75V114.79H759.66Z"/><path class="cls-1" d="M1394.05,0V535.7H999.93V420.91h53.56V114.79H999.93V0ZM1168.3,420.91h111V114.79h-111Z"/><path class="cls-1" d="M114.8,534,224.24,729.92,333.68,534H448.47v535.71H333.68V722.27L224.24,915.12,114.8,722.27v347.44H0V534Z"/><path class="cls-1" d="M855.11,534l4,535.71H401.42V534ZM560.22,954.91H690.31V648.79H560.22Z"/><path class="cls-1" d="M1221.77,534v535.71H802.07V534ZM916.87,954.91H1047V648.79H916.87Z"/><path class="cls-1" d="M1518.41,534V889.87H1470.5l73.93,179.84h-130.1l-86.48-176h-54.33v176h-114.8V534ZM1273.52,778.9h130.09V648.79H1273.52Z"/><path class="cls-1" d="M1769.2,534v535.71h-101V943.43H1568.7l-11.48,126.28H1442.43l52-535.71Zm-104,294.64,3-179.85h-72.69l-16.85,179.85Z"/><path class="cls-1" d="M1767.32,0V126.27l-199,95.67,199,95.66V443.87L1452.8,279.33h-168V164.54h168Z"/></svg>